<?xml version="1.0" encoding="UTF-8"?>
<svg width="144px" height="32px" viewBox="0 0 144 32" version="1.1" xmlns="http://www.w3.org/2000/svg" xmlns:xlink="http://www.w3.org/1999/xlink">
    <title>Logo</title>
    <g id="Logo" stroke="none" stroke-width="1" fill="none" fill-rule="evenodd">
        <g id="logo" style="mix-blend-mode: hard-light;" transform="translate(7.000000, 1.000000)" fill="#FFFFFF">
            <path d="M41.1978514,20.605861 L41.1978514,20.605861 C41.1978514,18.6161423 40.6779806,17.0159453 39.6393594,15.8029305 C38.6007382,14.5899157 37.2461609,13.9839931 35.5733869,13.9839931 C33.8412311,13.9839931 32.4888947,14.5419565 31.5174982,15.6590531 C30.5461016,16.77498 30.0609636,18.3342363 30.0609636,20.336822 C30.0609636,22.4669088 30.5494629,24.1092163 31.5264615,25.2649141 C32.5034601,26.4194422 33.8894088,26.9972911 35.6843077,26.9972911 C37.4052593,26.9972911 38.7542345,26.4358185 39.7312331,25.3128732 C40.7093521,24.189928 41.1978514,22.6213138 41.1978514,20.605861 L41.1978514,20.605861 Z M44,11.6351659 L44,29.2490304 L41.1978514,29.2490304 L41.1978514,26.0533153 C40.521123,27.3365142 39.6584064,28.3155821 38.6074606,28.9893493 C37.5565149,29.6631164 36.3789626,30 35.0759243,30 C32.6547156,30 30.7029592,29.1308872 29.2217755,27.3914917 C27.7405918,25.6520963 27,23.352398 27,20.4900573 C27,17.590285 27.719304,15.2835683 29.1567917,13.569907 C30.5953997,11.8574155 32.5191459,11 34.9291505,11 C36.3419891,11 37.567719,11.3298652 38.6074606,11.9907653 C39.6460819,12.6528351 40.4852699,13.6365819 41.1239043,14.9466847 L41.1239043,11.6351659 L44,11.6351659 Z" id="Fill-516"></path>
            <polygon id="Fill-518" points="46 30 46 1 48.961307 1 48.961307 20.6448312 57.2823158 12.8801207 61.2261393 12.8801207 52.6036113 20.7198636 62 30 57.8681571 30 48.961307 20.9631503 48.961307 30"></polygon>
            <path d="M73.1978514,20.605861 L73.1978514,20.605861 C73.1978514,18.6161423 72.6779806,17.0159453 71.6393594,15.8029305 C70.6007382,14.5899157 69.2450405,13.9828234 67.5733869,13.9828234 C65.8412311,13.9828234 64.4888947,14.5407868 63.5174982,15.6590531 C62.5461016,16.77498 62.0609636,18.3342363 62.0609636,20.3356523 C62.0609636,22.4657391 62.5494629,24.1092163 63.5264615,25.2637444 C64.5034601,26.4194422 65.8894088,26.9961214 67.6843077,26.9961214 C69.4052593,26.9961214 70.7542345,26.4358185 71.7312331,25.3117035 C72.7082317,24.1887582 73.1978514,22.6201441 73.1978514,20.605861 L73.1978514,20.605861 Z M76,11.6351659 L76,29.2490304 L73.1978514,29.2490304 L73.1978514,26.0533153 C72.521123,27.3365142 71.6584064,28.3155821 70.6074606,28.9893493 C69.5565149,29.6631164 68.3789626,30 67.0759243,30 C64.6547156,30 62.7029592,29.1308872 61.2217755,27.3914917 C59.7405918,25.6520963 59,23.352398 59,20.4900573 C59,17.5891153 59.719304,15.2823986 61.1567917,13.5687373 C62.5953997,11.8562458 64.5191459,11 66.9280301,11 C68.3419891,11 69.5688394,11.3298652 70.6074606,11.9907653 C71.6460819,12.6516653 72.4852699,13.6365819 73.1239043,14.945515 L73.1239043,11.6351659 L76,11.6351659 Z" id="Fill-520"></path>
            <path d="M77,29 L77,11.6264983 L79.9458906,11.6264983 L79.9458906,14.3032498 C80.704007,13.1898596 81.6142147,12.3602974 82.6800234,11.8157169 C83.7458321,11.2722902 84.9777713,11 86.3770108,11 C88.4559813,11 90.0798479,11.5445805 91.2474408,12.6325877 C92.4162036,13.7217486 93,15.234344 93,17.1715275 L93,29 L89.9195671,29 L89.9195671,18.7660406 C89.9195671,17.006538 89.5440187,15.6993141 88.7929219,14.844369 C88.0418251,13.9905775 86.8835917,13.5636818 85.3182217,13.5636818 C84.4197134,13.5636818 83.6007605,13.7240562 82.8625329,14.0471124 C82.1243054,14.3701686 81.5112606,14.8293699 81.0233987,15.4235626 C80.65136,15.8793026 80.3857853,16.3985001 80.2255045,16.9811551 C80.0652237,17.5626562 79.9844984,18.5756682 79.9844984,20.0190372 L79.9844984,29 L77,29 Z" id="Fill-522"></path>
            <path d="M111,0 L111,29.2634799 L108.198036,29.2634799 L108.198036,26.1292543 C107.533676,27.3762906 106.673257,28.3330784 105.615658,28.9996176 C104.55806,29.6661568 103.378345,30 102.076512,30 C99.654343,30 97.7027152,29.1476099 96.2227494,27.4416826 C94.740543,25.7369025 94,23.4803059 94,20.6741874 C94,17.8416826 94.7259786,15.5827916 96.1768156,13.8952199 C97.6265322,12.2087954 99.5568736,11.3655832 101.965599,11.3655832 C103.367141,11.3655832 104.582707,11.6891013 105.615658,12.3372849 C106.648609,12.9866157 107.484381,13.9525813 108.124094,15.2363289 L108.124094,0 L111,0 Z M102.500672,14.2923901 C100.792158,14.2923901 99.4578358,14.8269981 98.4988269,15.8973614 C97.5409384,16.9665774 97.061434,18.4453537 97.061434,20.3336902 C97.061434,22.4606501 97.5465401,24.1252772 98.5178727,25.3275717 C99.4892052,26.5298662 100.828008,27.1298662 102.537643,27.1298662 C104.306656,27.1298662 105.692514,26.564283 106.695216,25.4308222 C107.696797,24.2985086 108.197588,22.7245124 108.197588,20.7111281 C108.197588,18.7849331 107.67439,17.2338815 106.630236,16.056826 C105.584961,14.8797706 104.208066,14.2923901 102.500672,14.2923901 Z" id="形状结合"></path>
            <path d="M127.197851,20.605861 L127.197851,20.605861 C127.197851,18.6161423 126.677981,17.0159453 125.639359,15.8029305 C124.600738,14.5899157 123.246161,13.9828234 121.573387,13.9828234 C119.841231,13.9828234 118.488895,14.5407868 117.517498,15.6590531 C116.546102,16.77498 116.060964,18.3342363 116.060964,20.3356523 C116.060964,22.4657391 116.549463,24.1092163 117.526461,25.2637444 C118.504581,26.4194422 119.890529,26.9961214 121.685428,26.9961214 C123.405259,26.9961214 124.755355,26.4358185 125.732354,25.3117035 C126.709352,24.1887582 127.197851,22.6201441 127.197851,20.605861 L127.197851,20.605861 Z M130,11.6351659 L130,29.2490304 L127.197851,29.2490304 L127.197851,26.0533153 C126.521123,27.3365142 125.658406,28.3155821 124.607461,28.9893493 C123.556515,29.6631164 122.378963,30 121.075924,30 C118.654716,30 116.702959,29.1308872 115.221776,27.3914917 C113.740592,25.6520963 113,23.352398 113,20.4900573 C113,17.5891153 113.719304,15.2823986 115.156792,13.5687373 C116.5954,11.8562458 118.519146,11 120.92915,11 C122.341989,11 123.568839,11.3298652 124.607461,11.9907653 C125.646082,12.6516653 126.48527,13.6365819 127.123904,14.945515 L127.123904,11.6351659 L130,11.6351659 Z" id="Fill-528"></path>
            <polygon id="Fill-530" points="28.8006369 4 22.4585277 20.6160999 15.4644153 4 15.4449011 4.0080588 15.4414575 4 10.5606162 4 14.5105162 13.7684201 11.8967637 20.6160999 4.90379916 4 4.88428497 4.0080588 4.88084129 4 0 4 10.5135525 30 12.1148634 25.8059688 15.6423387 16.5659759 21.0753166 30 22.6766274 25.8059688 31 4"></polygon>
        </g>
    </g>
</svg>